<?xml version="1.0" standalone="no"?><!DOCTYPE svg PUBLIC "-//W3C//DTD SVG 1.1//EN" "http://www.w3.org/Graphics/SVG/1.1/DTD/svg11.dtd"><svg t="1586936570968" class="icon" viewBox="0 0 1024 1024" version="1.1" xmlns="http://www.w3.org/2000/svg" p-id="18095" xmlns:xlink="http://www.w3.org/1999/xlink" width="16" height="16"><defs><style type="text/css"></style></defs><path d="M97.043893 64l280.373334 364.490667A32 32 0 0 1 384.057227 448v384a32 32 0 0 1-64 0V458.88L6.691893 51.514667C-9.48944 30.469333 5.507893 0 32.057227 0h832c26.549333 0 41.546667 30.469333 25.365333 51.509333L576.057227 458.885333V992a32 32 0 0 1-64 0V448a32 32 0 0 1 6.634666-19.509333L799.065227 64H97.049227zM682.723893 576h320a21.333333 21.333333 0 1 1 0 42.666667h-320a21.333333 21.333333 0 1 1 0-42.666667z m0 138.666667h320a21.333333 21.333333 0 1 1 0 42.666666h-320a21.333333 21.333333 0 1 1 0-42.666666z m0 138.666666h320a21.333333 21.333333 0 1 1 0 42.666667h-320a21.333333 21.333333 0 1 1 0-42.666667z" fill="#4C5A5C" p-id="18096"></path></svg>