<?xml version="1.0" standalone="no"?><!DOCTYPE svg PUBLIC "-//W3C//DTD SVG 1.1//EN" "http://www.w3.org/Graphics/SVG/1.1/DTD/svg11.dtd"><svg t="1586936477946" class="icon" viewBox="0 0 1024 1024" version="1.1" xmlns="http://www.w3.org/2000/svg" p-id="15557" xmlns:xlink="http://www.w3.org/1999/xlink" width="16" height="16"><defs><style type="text/css"></style></defs><path d="M558.5408 66.6112c73.984-42.9568 177.5616-35.328 238.336 27.3408 35.4816 35.7376 53.4016 86.6816 51.9168 136.704-2.304 47.2576-22.8352 93.184-56.2176 126.6688-24.576 24.4736-49.152 48.9984-73.6256 73.5744 49.9712-24.576 111.0016-24.0128 161.3312-0.7168 52.5312 24.0128 93.2864 72.9088 106.6496 129.1776 16.4864 62.5152-2.56 133.8368-49.7664 178.432-68.4544 68.0448-136.3456 136.6016-204.8512 204.544-60.1088 56.8832-158.976 62.208-227.4304 17.4592-51.1488-32.7168-88.2688-90.6752-87.9104-152.3712-3.328 48.128-24.4224 95.0272-59.4944 128.3584-38.5024 37.376-92.928 57.9072-146.5856 53.248-57.7024-2.7136-112.3328-34.9696-145.152-82.0736-40.5504-57.1392-46.1312-136.8064-12.6464-198.5536 33.0752-64.512 104.704-106.8544 177.2032-104.0384 27.1872 2.2016 57.2416 5.5296 78.7456 23.9104 4.3008 0.0512 8.448-0.8704 12.3904-2.7136-29.2864-10.0352-50.0736-35.7888-67.3792-60.3648-34.816-52.2752-39.4752-121.7536-16.4864-179.6096 11.8784-29.952 32.9216-55.1936 57.1904-75.9296 66.304-63.2832 132.8128-126.3104 199.0656-189.6448 20.48-19.0464 39.8336-39.9872 64.7168-53.4016m-158.208 251.9552c-68.6592 8.4992-130.0992 71.3216-127.0784 142.2848-1.1264 45.9264 22.272 91.0336 59.904 117.1456 52.224 38.7072 131.4304 34.4064 178.5856-10.6496 44.1856-38.144 59.1872-104.7552 37.4784-158.5664-22.3744-58.88-86.3744-97.536-148.8896-90.2144m-75.8784 313.1392c1.2288 1.3312 1.2288 1.3312 0 0m9.5232 4.4032c0.4096 6.1952 7.9872 8.192 11.6224 12.3904 42.3936 32.6656 66.6112 84.736 72.192 137.216-2.0992-33.5872 10.24-66.3552 28.7232-93.952 13.824-20.6848 33.792-36.0448 50.3808-54.3744-51.5072 23.1936-111.6672 21.504-162.9184-1.28m-142.2336 21.2992c-63.3344 14.1824-113.7152 75.6736-110.4384 141.2608-2.2016 72.448 61.5424 139.4688 134.0928 140.7488 47.9232 4.3008 95.8976-18.9952 123.9552-57.6512 26.9824-34.2016 32.2048-81.2032 22.7328-122.7264-11.4688-42.3424-43.9296-78.4384-84.5824-94.7712-26.88-11.4176-57.3952-11.9296-85.76-6.8608m378.7264 0.8192c-60.4672 14.4384-105.8304 73.3184-105.216 135.3216-2.8672 45.824 20.3264 91.0336 56.832 118.1696 37.8368 29.5936 91.5968 35.7376 136.2432 19.3024 46.7456-17.3056 80.4864-62.0032 87.8592-110.8992 7.168-45.3632-8.0896-94.5152-42.3424-125.7472-33.9968-34.9184-86.5792-47.5136-133.376-36.1472z" fill="" p-id="15558"></path><path d="M396.288 366.4384c37.9392-8.3456 80.6912 8.6528 101.12 42.0352 25.6512 39.168 17.9712 96.8192-18.3808 126.8224-32.4608 27.904-83.6608 30.4128-118.5792 5.632-30.3616-19.968-45.824-58.9824-40.0896-94.464 4.7616-39.4752 36.9152-73.0624 75.9296-80.0256m5.2736 50.0736c-21.1456 7.5264-38.4512 31.744-31.0272 54.4768 4.2496 18.2784 20.1216 33.8944 38.9632 36.2496 26.8288 4.864 54.4256-19.8144 52.6848-47.0016 1.792-29.9008-32.8192-54.272-60.6208-43.7248zM201.216 703.0784c33.8944-6.9632 71.7824 2.304 94.976 29.0304 32.8704 35.7888 32.256 95.7952-0.8192 131.2768-24.7808 26.624-65.3824 37.12-100.096 26.2656-39.2704-10.9056-69.0176-49.9712-67.4816-90.9824-2.8672-44.288 30.208-86.4768 73.4208-95.5904m-23.1424 100.5568c1.8432 23.7568 24.8832 37.5808 46.1312 41.9328 17.7664-4.6592 36.9664-13.1584 42.9056-32.2048 14.2848-28.0064-12.288-63.8976-42.5472-62.7712-27.3408-1.4848-52.0704 25.856-46.4896 53.0432zM580.5568 704.1536c36.352-9.3184 78.3872 0.8704 102.144 31.0784 37.7344 43.4176 24.9344 119.7056-26.7776 146.2784-45.8752 26.8288-111.7696 8.3968-134.5536-40.2944-26.88-51.4048 1.7408-122.9312 59.1872-137.0624m-18.4832 99.5328c1.8944 23.7056 24.9344 37.5296 46.1312 41.8816 17.7152-4.7104 36.9664-13.1072 42.9056-32.2048 14.336-28.1088-12.4416-64.1024-42.8032-62.7712-27.2896-1.3312-51.8656 26.0096-46.2336 53.0944z" fill="" p-id="15559"></path></svg>