<?xml version="1.0" standalone="no"?><!DOCTYPE svg PUBLIC "-//W3C//DTD SVG 1.1//EN" "http://www.w3.org/Graphics/SVG/1.1/DTD/svg11.dtd"><svg t="1586936304238" class="icon" viewBox="0 0 1024 1024" version="1.1" xmlns="http://www.w3.org/2000/svg" p-id="6129" xmlns:xlink="http://www.w3.org/1999/xlink" width="16" height="16"><defs><style type="text/css"></style></defs><path d="M517.519828 659.979376a48.574482 48.574482 0 0 1-24.639231-7.03978L24.255242 371.156401a47.9985 47.9985 0 0 1 0-82.845411L492.912596 7.167776a48.894472 48.894472 0 0 1 51.454393 0.31999L1001.248711 288.31099a48.31849 48.31849 0 0 1 0 81.885441l-456.881722 282.423175a49.214462 49.214462 0 0 1-26.847161 7.35977zM141.851567 330.197681l375.348271 223.897004 367.02853-223.897004-367.02853-225.784944-375.348271 225.784944z m368.30849 505.072217a46.334552 46.334552 0 0 1-23.327271-6.07981L25.503203 571.374145a47.9985 47.9985 0 1 1 46.686541-83.805382l437.650323 244.696354 442.162183-253.976064a47.9985 47.9985 0 1 1 47.966501 83.197401l-465.809443 267.703634c-7.35977 3.999875-15.615512 6.07981-23.999251 6.07981z m0 188.698103a46.334552 46.334552 0 0 1-23.327271-6.07981L25.503203 760.104247a47.9985 47.9985 0 0 1 46.686541-83.83738l437.650323 244.696353 442.162183-253.944064a47.614512 47.614512 0 0 1 65.533952 17.59945 48.31849 48.31849 0 0 1-17.59945 65.565951L534.191307 1017.568201a49.854442 49.854442 0 0 1-23.999251 6.3998z" fill="#515151" p-id="6130"></path></svg>